<?xml version="1.0" encoding="utf-8"?>
<!-- Generator: Adobe Illustrator 24.0.1, SVG Export Plug-In . SVG Version: 6.00 Build 0)  -->
<svg version="1.1" id="Layer_1" xmlns="http://www.w3.org/2000/svg" xmlns:xlink="http://www.w3.org/1999/xlink" x="0px" y="0px"
	 viewBox="0 0 677.6 477.3" style="enable-background:new 0 0 677.6 477.3;" xml:space="preserve">
<style type="text/css">
	.st0{fill:none;}
	.st1{fill:#B9975B;}
	.st2{fill:#203468;}
	.st3{fill:#FFFFFF;}
	.st4{fill:#B9985A;}
</style>
<g>
	<path class="st0" d="M505.3,413.6c6.6,3.8,12.9,6.3,17.6,6.2c1.5-0.7,3.2-1.7,4.9-3.1c-8.4,0.1-14.4-3.4-17.1-5.4
		c-5.2,0.4-5.9-4.2-5.9-4.2c-0.2-5.4,5.8-6.7,5.8-6.7c11.5-4.5,14-10,14-10l0.5-0.5c-16.4-3.7-42.8-4.1-49.5-4.1
		C487.1,398.5,502,411,505.3,413.6z"/>
	<polygon class="st1" points="583.4,365.5 585.5,365.5 585.5,371.8 587.2,371.8 587.2,365.5 589.4,365.5 589.4,364 583.4,364 	"/>
	<path class="st1" d="M595.9,364l-0.8,2.6c-0.3,0.9-0.5,1.9-0.7,2.8h-0.1c-0.2-0.9-0.4-1.9-0.7-2.8l-0.8-2.6h-2.3l-0.5,7.8h1.6
		l0.2-3c0-1,0.1-2.2,0.1-3.2h0c0.2,1,0.5,2.1,0.7,3l0.8,3h1.4l0.9-3c0.3-0.9,0.6-2,0.9-3h0c0,1.1,0,2.3,0.1,3.2l0.1,3h1.7l-0.4-7.8
		H595.9z"/>
	<path class="st1" d="M665.5,328.4c2-7.7,2.8-24.3-16.7-44.8c0,0-34.7-40.1-127.7-29.9l-11.4,1.4c0,0,54-14.6,30.5-30.5
		c0,0,29.6-17.7-6.8-46.2c0,0-35.9-31.6-252.2-101c0,0-89.5-31-240.9-65.3c0,0-19.7-4.2-35.5-6.7c0,0,20.1,41.6,92.2,64.4
		c0,0,1.9,23.6,44.8,43.9c0,0-0.1,2.4,1,6c0,0-28.6-3.2-83-10.6c0,0-3.2,34.5,69.2,38.6c0,0,11.5,26.1,76.1,33.1
		c0,0,7,16.7,51.4,33.8c18.6,7.2,46.7,17.2,70.5,27.5c0,0-75.5-2.9-221.1-32.5c0,0,4.4,16.3,35.5,34.4c0,0-17.8-2.4-24.8-4.3
		c0,0,10.9,23.4,53.7,40.5l-17.3,0.8c33.8,27.1,82.3,35,82.3,35l47-5.1l17.5,9.6l-29.7,3.8c18.2,12.8,55.2,25.7,55.2,25.7l-15.1,3.5
		c0,0,13.2,6.8,34.2,13.9c0,0,16.4,5.4,34.7,9.4l-12.3,5c0,0,78.9,11.5,121.4,33.5c12,6.9,10.4,12.4,8.4,14.9c-0.8,1-3,2.2-3.9,2.5
		c-2.7,0.9-5.9,1.6-9.9,2.1c0,0-7.5-0.4-9.3,6.6c0,0-0.8,6,5.5,7.3c2.5,3.5,8.6,10.4,19.2,13c0,0-7.9-5.5-10.9-13.5
		c2.6-0.9,5-2.7,3.7-6.4c0,0,7.7-7.9,31.8-5.5c0,0,24.1,5.1,19.1,13c0,0-4.9,5.8,1.2,8.1c0,0,0,0,0,0c1.2,8.3-3.5,16.2-3.5,16.2
		c6.7-4.8,9.5-11.1,10.7-15.5c2.7-0.6,5.3-2.4,5.7-7.2c0,0,1.8-10-13-15.5c0,0-0.2-0.1-5.2-2.4c5.7-3.6,11.5-6.3,18.5-5.3
		c4.5,0.7,6.5,4.4,11,4.1c2,3.4,3.7,8.9,1.7,16.2c0,0,7.1-8.3,5.1-18.9c3.1-2.5,3.3-6.2-0.4-8.9c-6.5-4.9-21.5-2.6-28.6,0.9
		c-3.7,1.8-9.6,3.4-15.6,3.8c2.6-5,9.7-7.2,9.7-7.2c7.9-2.3,7.2-5.3,7.2-5.3c4.5-1.3,9,4.3,9,4.3c-2-11.3-10.1-8.9-10.1-8.9
		c-4-7.6-12.8,4.1-12.8,4.1c-1.6,1.9-3.2,3.4-4.7,4.7c-1.8-0.7-7.5-3-10.9-7.3c1.9-1.2,3.3-3,1.5-5.4c0,0,4.2-7.4,23.6-10.7
		c0,0,19.9-1.4,17.8,5.4c0,0-2.5,5.3,2.8,5.6c0,0,0,0,0,0c2.8,5.8,0.9,12.5,0.9,12.5c4.1-4.9,4.9-10,4.8-13.5c2-1,3.6-2.9,2.8-6.4
		c0,0-0.8-7.7-13.6-8.5c0,0-0.2-0.1-4.6-0.7c3.6-3.8,7.6-7,13.2-7.7c3.6-0.5,6,1.8,9.5,0.7c2.3,2.1,4.9,5.7,5,11.4
		c0,0,3.6-7.5-0.3-14.8c1.8-2.5,1.2-5.2-2.3-6.4c-6.2-2.2-17.3,2.6-22.1,6.7c-2.5,2.1-6.7,4.5-11.3,6c0.9-4.2,5.9-7.2,5.9-7.2
		c5.7-3.3,4.4-5.4,4.4-5.4c3.2-1.9,8,1.2,8,1.2c-4.1-7.8-9.9-4.4-9.9-4.4c-4.8-4.7-9,5.7-9,5.7c-4.4,9.2-10.2,10.4-12.7,10.5
		c-4.2-1.1-17.9-5.2-31.4-14.9c68.6,0.5,111.9-20.2,111.9-20.2c14.5,6.1,24.4,11.2,24.4,11.2l3.3,5.3c-0.5,3.4-5.1,11.2-5.1,11.2
		C689.5,364.7,670.3,331.6,665.5,328.4z M532.6,240.3c0,0-17.8,9.2-29.5,11.2c0,0-4.7-10.8,5.3-13.5c0,0,17.2-5.4,27.5-10.8
		C535.9,227.3,546.1,233.1,532.6,240.3z M132.6,142.5c0,0-55.8-2.7-63.3-26.1l76.3,10c0,0,10.1,23.6,53.5,38.1l0.4,0.2
		c0.8,6.3,2.5,10.2,2.5,10.2S140.1,164.8,132.6,142.5z M524.5,390.5c0,0-2.5,5.5-14,10c0,0-6,1.3-5.8,6.7c0,0,0.7,4.5,5.9,4.2
		c2.7,2,8.6,5.5,17.1,5.4c-1.7,1.4-3.4,2.4-4.9,3.1c-4.7,0.1-11-2.4-17.6-6.2c-3.2-2.6-18.2-15.1-29.8-27.7c6.6,0,33,0.4,49.5,4.1
		L524.5,390.5z M509.4,378c-7.1,1.9-7.5,6-7.5,6c-14.7-1.2-28.9-1.2-28.9-1.2c-7.7-9.3-9.3-16.8-9.3-16.8
		c19.1,3.7,32.2,2.9,32.2,2.9C501.7,375.7,509.4,378,509.4,378z M640.4,372c0,0,5.6-6.2,4.4-8.8l-5-6.8L618,345.8c0,0-2-0.9-5.4-2.1
		c-24.5,9.5-44.1,14.6-59.1,17.2l0,0c-53.7,9.9-88.8-0.7-88.8-0.7c-8.5-3.4,12.9-17.2,12.9-17.2c-11.1,2.9-17.7,7.4-17.7,7.4
		c-10.2,6.2-6.9,12.8-6.9,12.8c5.5,12.2,25.2,31.7,28.4,34.1l2.7,2.5c-6.4,0-7.6,3.9-7.6,3.9c-25.4-10.6-46.6-15.9-46.6-15.9
		c-24.7-7-36.1-8.5-36.1-8.5l13.4-5c-35.1-2.9-74.1-19.9-74.1-19.9c13.6-0.4,23.3-7,23.3-7c-33.1-6.7-62-18-62-18
		c20.2-0.9,34.9-4.7,34.9-4.7c-15.8-4.7-43.2-21.4-43.2-21.4l-47.1,3.6c-21.3-1.4-58.4-18.5-58.4-18.5c59.3,1.7,102-4,102-4
		l-6.4-2.7c-43.8,1-92-4.2-92-4.2c-20.9-8.1-44.8-24.6-44.8-24.6c81.1,9.4,155.6,7.7,155.6,7.7l-5.7-3
		c-61.6-2-127.9-10.8-127.9-10.8c-8.1-3-36.8-24.2-36.8-24.2c95.6,21.9,222.8,28.2,222.8,28.2l8.5,0.7c9.8,4.9,16.4,8.8,21.3,12.3
		c6.3,4.5,13.9,10.6,15.8,11.6c7.4,4.4,10.6,4,4.1-3.8c-6-7.1-13.3-11.6-23.9-17c-54.9-26.7-98.6-41-104.5-43.2
		c-31.7-12.2-60.8-27.6-61.4-44.6c46.1,15.6,141.9,51.2,141.9,51.2l6.8-2.8c-38.6-16.2-147.9-54.9-147.9-54.9
		c-58.1-18.6-59.4-44.6-59.4-44.6c57.7,17.6,243.2,83.5,243.2,83.5l7.3-2.6l-243-85.1C110.5,96.3,104,71.3,104,71.3
		c194.2,55.4,340.9,114.5,340.9,114.5c13.3,7.8,2.1,13,2.1,13c37-3,5.4-18.3,5.4-18.3c-96.8-43.4-355.8-118-355.8-118
		c-50-14.7-75.4-47.7-75.4-47.7c288.6,63.3,486,156.3,486,156.3c82.5,44.7,1.1,60.7,1.1,60.7c-27.4,5.7,2.4,41.6,2.4,41.6l0.3,0.5
		c0.3-0.1,0.7-0.2,1-0.3l-3.3-12.4c0,0,51.3-6.7,88.6,1.5c13.7,2.7,28,8.2,41.1,18.5c0,0,22.6,18.1,24,33.7c0,0-1.8-4-17-13.1
		c-15.2-9-4.8,6.4-4.8,6.4s-2,6.1-10.5,3.1c-0.8-0.3-5.8-1.6-12-8.3c-1.3-1.5-3.2-4.1-3.2-4.1c-0.5,1.1-1.3,2.1-2.4,2.9
		c-4.4,3.5-11.9,3.7-16.9,0.3c-4.9-3.4-5.4-8.9-1-12.5c2.5-2,5.9-2.9,9.3-2.7c0,0-0.7-1.4-3.2-4.2c0,0-8.2-1.5-13.1,1
		c0,0-10.3,4.7,1.9,19c0,0,9.4,10.3,29.1,10.3c0,0,2.8-0.1,3.2,1.3c0,0,2.8,4.6-23.3,5.7c0,0-6.9,0.1-13.2,1.7c0,0-5.2,0.6,3.9,2.4
		c0,0,20,3.7,35.4,11.6c3.6-3.6,9.6-3.4,13.6-2.7c2.5,0.4,3.7,0.8,5.7,1.4c3.7,1.2,6.8,1.2,9.2,0.8c0,0,10,13.5-3.1,29.2
		c0,0,9.2-2.6,13.8-12.5c0,0,4.6-9.2-4.7-19.3c0,0,3.4-2.8,6.2,0.7C665.3,333.3,683.5,358.4,640.4,372z M653,330.5
		c-2.1,1.3-4.5,1.4-4.5,1.4c-6.1,0.2-6.6-2.6-6.6-2.6c-0.4-2.8,6-2.6,6-2.6C649.4,329.1,653,330.5,653,330.5z"/>
	<path class="st2" d="M665.3,333.3c-2.8-3.5-6.2-0.7-6.2-0.7c9.3,10.2,4.7,19.3,4.7,19.3c-4.6,9.9-13.8,12.5-13.8,12.5
		c13.1-15.7,3.1-29.2,3.1-29.2c-2.4,0.4-5.5,0.4-9.2-0.8c-2-0.6-3.1-1-5.7-1.4c-4-0.6-10-0.8-13.6,2.7
		c-15.4-7.9-35.4-11.6-35.4-11.6c-9.1-1.8-3.9-2.4-3.9-2.4c6.3-1.6,13.2-1.7,13.2-1.7c26.2-1.1,23.3-5.7,23.3-5.7
		c-0.4-1.4-3.2-1.3-3.2-1.3c-19.7,0.1-29.1-10.3-29.1-10.3c-12.2-14.3-1.9-19-1.9-19c4.9-2.5,13.1-1,13.1-1c2.5,2.8,3.2,4.2,3.2,4.2
		c-3.4-0.2-6.9,0.8-9.3,2.7c-4.4,3.5-3.9,9.1,1,12.5c4.9,3.4,12.5,3.2,16.9-0.3c1.1-0.9,1.9-1.9,2.4-2.9c0,0,1.8,2.6,3.2,4.1
		c6.2,6.7,11.2,8,12,8.3c8.5,3,10.5-3.1,10.5-3.1s-10.4-15.4,4.8-6.4c15.2,9.1,17,13.1,17,13.1c-1.4-15.6-24-33.7-24-33.7
		c-13.1-10.3-27.4-15.8-41.1-18.5c-37.2-8.2-88.6-1.5-88.6-1.5l3.3,12.4c-0.3,0.1-0.7,0.2-1,0.3l-0.3-0.5c0,0-29.8-35.9-2.4-41.6
		c0,0,81.4-16-1.1-60.7c0,0-197.4-93-486-156.3c0,0,25.5,33,75.4,47.7c0,0,259.1,74.6,355.8,118c0,0,31.6,15.2-5.4,18.3
		c0,0,11.1-5.3-2.1-13c0,0-146.7-59.1-340.9-114.5c0,0,6.5,25,52.1,40.2l243,85.1l-7.3,2.6c0,0-185.5-66-243.2-83.5
		c0,0,1.4,26,59.4,44.6c0,0,109.2,38.7,147.9,54.9l-6.8,2.8c0,0-95.7-35.6-141.9-51.2c0.6,17,29.7,32.4,61.4,44.6
		c5.8,2.2,49.6,16.5,104.5,43.2c10.6,5.3,17.9,9.9,23.9,17c6.5,7.8,3.3,8.2-4.1,3.8c-1.8-1.1-9.5-7.2-15.8-11.6
		c-4.9-3.5-11.5-7.4-21.3-12.3l-8.5-0.7c0,0-127.2-6.3-222.8-28.2c0,0,28.7,21.2,36.8,24.2c0,0,66.3,8.8,127.9,10.8l5.7,3
		c0,0-74.4,1.7-155.6-7.7c0,0,23.9,16.5,44.8,24.6c0,0,48.2,5.2,92,4.2l6.4,2.7c0,0-42.8,5.7-102,4c0,0,37.1,17.2,58.4,18.5
		l47.1-3.6c0,0,27.4,16.8,43.2,21.4c0,0-14.7,3.9-34.9,4.7c0,0,29,11.3,62,18c0,0-9.6,6.6-23.3,7c0,0,39,17,74.1,19.9l-13.4,5
		c0,0,11.5,1.5,36.1,8.5c0,0,21.2,5.4,46.6,15.9c0,0,1.3-3.9,7.6-3.9l-2.7-2.5c-3.1-2.4-22.9-21.8-28.4-34.1c0,0-3.4-6.5,6.9-12.8
		c0,0,6.6-4.5,17.7-7.4c0,0-21.4,13.8-12.9,17.2c0,0,35.1,10.6,88.8,0.7l0,0c15-2.6,34.5-7.7,59.1-17.2c3.4,1.1,5.4,2.1,5.4,2.1
		l21.8,10.6l5,6.8c1.2,2.7-4.4,8.8-4.4,8.8C683.5,358.4,665.3,333.3,665.3,333.3z M595.4,297c0,0-1.9-4.3,4.3-6.9l3.7,6.8L595.4,297
		z M625.6,301.2c5.3,6.2,9.2,7.7,9.2,7.7c-1.5,0.4-2.9,0.2-2.9,0.2c-8.8-1.4-17.2-13.2-20.7-18.8c-1.1-1.8-2.6-4.4-3.1-5
		c-6.8-9.9-17-14.6-17-14.6c13.9,3.3,24.9,16.9,29.4,23.4C622,296.2,624.7,300.1,625.6,301.2z"/>
	<path class="st2" d="M641.9,329.4c0,0,0.6,2.8,6.6,2.6c0,0,2.4-0.1,4.5-1.4c0,0-3.6-1.4-5.1-3.7C648,326.8,641.5,326.5,641.9,329.4
		z"/>
	<path class="st3" d="M595.4,297l7.9-0.1l-3.7-6.8C593.5,292.8,595.4,297,595.4,297z"/>
	<path class="st4" d="M591.1,270.6c0,0,10.2,4.6,17,14.6c0.5,0.7,2,3.2,3.1,5c3.5,5.6,11.9,17.4,20.7,18.8c0,0,1.4,0.2,2.9-0.2
		c0,0-3.9-1.5-9.2-7.7c-0.9-1.1-3.6-5-5.1-7.1C616,287.5,605,273.9,591.1,270.6z"/>
	<path class="st2" d="M199.1,164.4c-43.4-14.5-53.5-38.1-53.5-38.1l-76.3-10c7.5,23.4,63.3,26.1,63.3,26.1
		c7.5,22.3,69.4,32.3,69.4,32.3s-1.7-3.9-2.5-10.2L199.1,164.4z"/>
	<path class="st2" d="M535.9,227.3c-10.2,5.4-27.5,10.8-27.5,10.8c-10,2.7-5.3,13.5-5.3,13.5c11.7-2,29.5-11.2,29.5-11.2
		C546.1,233.1,535.9,227.3,535.9,227.3z"/>
	<path class="st2" d="M495.9,368.9c0,0-13.1,0.8-32.2-2.9c0,0,1.7,7.5,9.3,16.8c0,0,14.1,0,28.9,1.2c0,0,0.4-4.2,7.5-6
		C509.4,378,501.7,375.7,495.9,368.9z"/>
</g>
</svg>
